<?xml version="1.0" encoding="UTF-8" standalone="no"?>
<svg
   width="22"
   height="22"
   viewBox="0 0 22 22"
   fill="none"
   version="1.1"
   id="svg11"
   sodipodi:docname="social-net.svg"
   xmlns:inkscape="http://www.inkscape.org/namespaces/inkscape"
   xmlns:sodipodi="http://sodipodi.sourceforge.net/DTD/sodipodi-0.dtd"
   xmlns="http://www.w3.org/2000/svg"
   xmlns:svg="http://www.w3.org/2000/svg">
  <defs
     id="defs15" />
  <sodipodi:namedview
     id="namedview13"
     pagecolor="#ffffff"
     bordercolor="#000000"
     borderopacity="0.25"
     inkscape:showpageshadow="2"
     inkscape:pageopacity="0.0"
     inkscape:pagecheckerboard="0"
     inkscape:deskcolor="#d1d1d1"
     showgrid="false" />
  <g
     id="Frame"
     transform="translate(-98,-1)">
    <g
       id="Group_3">
      <path
         id="Vector_3"
         d="m 109,1 c -2.987,0 -3.363,0.01307 -4.536,0.0663 -1.17,0.0523 -1.969,0.23906 -2.67,0.51174 -0.723,0.28015 -1.337,0.65648 -1.9477,1.26813 C 99.2336,3.45876 98.8582,4.07229 98.5762,4.79413 98.3044,5.4945 98.1186,6.29292 98.0663,7.46394 98.0121,8.63683 98,9.01316 98,11.9995 c 0,2.9883 0.0131,3.3627 0.0663,4.5356 0.0523,1.1701 0.2381,1.9713 0.5099,2.6698 0.282,0.7237 0.6574,1.3373 1.2701,1.948 0.6107,0.6126 1.2247,0.988 1.9477,1.27 0.701,0.2717 1.499,0.4576 2.67,0.5117 C 105.637,22.9869 106.013,23 109,23 c 2.986,0 3.363,-0.0131 4.536,-0.0654 1.17,-0.0541 1.969,-0.239 2.67,-0.5117 0.723,-0.282 1.337,-0.6574 1.948,-1.27 0.612,-0.6107 0.988,-1.2243 1.27,-1.948 0.272,-0.6985 0.457,-1.4988 0.51,-2.6698 0.054,-1.1729 0.066,-1.5473 0.066,-4.5356 0,-2.98728 -0.013,-3.36267 -0.066,-4.53556 -0.053,-1.17008 -0.238,-1.96944 -0.51,-2.66981 -0.282,-0.72278 -0.658,-1.3363 -1.27,-1.94796 C 117.543,2.23358 116.929,1.85819 116.206,1.57804 115.505,1.30629 114.707,1.1186 113.536,1.0663 112.363,1.01214 111.986,1 109,1 Z m 0,1.98251 c 2.938,0 3.284,0.01121 4.445,0.0635 1.073,0.04949 1.655,0.22786 2.043,0.3782 0.513,0.19984 0.879,0.43797 1.265,0.82364 0.386,0.38567 0.624,0.75079 0.824,1.26533 0.15,0.3866 0.33,0.96931 0.378,2.04228 0.054,1.16074 0.063,1.50812 0.063,4.44504 0,2.9368 -0.01,3.2861 -0.063,4.445 -0.049,1.0729 -0.228,1.6547 -0.378,2.0432 -0.2,0.5127 -0.438,0.8797 -0.824,1.2644 -0.386,0.3857 -0.751,0.6238 -1.265,0.8236 -0.388,0.1504 -0.97,0.3306 -2.043,0.3782 -1.161,0.0542 -1.508,0.0654 -4.445,0.0654 -2.937,0 -3.286,-0.0112 -4.445,-0.0654 -1.073,-0.0485 -1.655,-0.2278 -2.043,-0.3782 -0.513,-0.1998 -0.879,-0.4379 -1.265,-0.8236 -0.386,-0.3838 -0.624,-0.7508 -0.824,-1.2644 -0.15,-0.3885 -0.33,-0.9703 -0.378,-2.0432 -0.054,-1.1589 -0.0633,-1.5082 -0.0633,-4.445 0,-2.93692 0.0102,-3.2843 0.0633,-4.44504 0.049,-1.07297 0.228,-1.65474 0.378,-2.04228 0.2,-0.51454 0.438,-0.87966 0.824,-1.26533 0.386,-0.38567 0.751,-0.6238 1.265,-0.82364 0.388,-0.15034 0.97,-0.32871 2.043,-0.3782 1.161,-0.05229 1.508,-0.0635 4.445,-0.0635 z"
         fill="#000000" />
      <path
         id="Vector_4"
         d="m 109,15.6674 c -2.025,0 -3.667,-1.6426 -3.667,-3.6671 0,-2.02456 1.642,-3.66623 3.667,-3.66623 2.025,0 3.667,1.64074 3.667,3.66623 0,2.0254 -1.642,3.6671 -3.667,3.6671 z m 0,-9.31584 c -3.12,0 -5.648,2.52974 -5.648,5.64774 0,3.12 2.528,5.6497 5.648,5.6497 3.12,0 5.648,-2.5297 5.648,-5.6497 0,-3.11894 -2.528,-5.64774 -5.648,-5.64774 z"
         fill="#000000"
         inkscape:export-filename="instagram.svg"
         inkscape:export-xdpi="96"
         inkscape:export-ydpi="96" />
      <path
         id="Vector_5"
         d="m 116.193,6.12853 c 0,0.72839 -0.591,1.32043 -1.321,1.32043 -0.728,0 -1.319,-0.59204 -1.319,-1.32043 0,-0.72838 0.591,-1.32042 1.319,-1.32042 0.73,0 1.321,0.59204 1.321,1.32042 z"
         fill="#000000" />
    </g>
  </g>
</svg>
