<?xml version="1.0" encoding="UTF-8" standalone="no"?>
<svg
   width="22"
   height="22"
   viewBox="0 0 22 22"
   fill="none"
   version="1.1"
   id="svg11"
   sodipodi:docname="social-net.svg"
   xmlns:inkscape="http://www.inkscape.org/namespaces/inkscape"
   xmlns:sodipodi="http://sodipodi.sourceforge.net/DTD/sodipodi-0.dtd"
   xmlns="http://www.w3.org/2000/svg"
   xmlns:svg="http://www.w3.org/2000/svg">
  <defs
     id="defs15" />
  <sodipodi:namedview
     id="namedview13"
     pagecolor="#ffffff"
     bordercolor="#000000"
     borderopacity="0.25"
     inkscape:showpageshadow="2"
     inkscape:pageopacity="0.0"
     inkscape:pagecheckerboard="0"
     inkscape:deskcolor="#d1d1d1"
     showgrid="false" />
  <g
     id="Frame"
     transform="translate(-57,-1)">
    <g
       id="Group">
      <path
         id="Vector"
         d="M 68.0009,1 C 61.9244,1 57,5.92371 57,11.9995 c 0,4.5053 2.7086,8.3717 6.5851,10.0753 -0.0316,-0.7681 -0.0074,-1.6915 0.1906,-2.5265 0.2111,-0.8918 1.4153,-5.9931 1.4153,-5.9931 0,0 -0.3515,-0.703 -0.3515,-1.7416 0,-1.6301 0.9447,-2.8464 2.1219,-2.8464 1.0005,0 1.4821,0.74948 1.4821,1.6505 0,1.008 -0.6406,2.5088 -0.9707,3.9046 -0.2753,1.167 0.5848,2.1192 1.736,2.1192 2.0847,0 3.4869,-2.6771 3.4869,-5.8499 0,-2.41022 -1.6226,-4.21419 -4.5767,-4.21419 -3.3362,0 -5.4163,2.48743 -5.4163,5.26589 0,0.9596 0.2836,1.6357 0.7271,2.1592 0.2037,0.2408 0.2297,0.3366 0.159,0.6137 -0.0548,0.2009 -0.1748,0.69 -0.225,0.8815 -0.0734,0.2799 -0.2994,0.3785 -0.5504,0.2771 -1.538,-0.6276 -2.254,-2.3116 -2.254,-4.2049 0,-3.12436 2.6352,-6.87084 7.8627,-6.87084 4.2011,0 6.9636,3.03977 6.9636,6.30174 0,4.3156 -2.3999,7.5404 -5.9352,7.5404 -1.1874,0 -2.3041,-0.6434 -2.6863,-1.3725 0,0 -0.6397,2.5339 -0.7745,3.024 -0.2325,0.8471 -0.69,1.6961 -1.1065,2.3572 C 65.8725,22.841 66.9177,23 68.0019,23 74.0765,23 79,18.0754 79,12.0005 79,5.92371 74.0765,1.00093 68.0019,1.00093 Z"
         fill="#000000" />
    </g>
  </g>
</svg>
